Patient4_TMGait_0pt2_03_right_26_EMG.mot
version=1
nRows=30
nColumns=33
inDegrees=no
endheader
time	1LAddLong	2LGlutMax	3LGlutMed	4LIliopsoas	5LSemiMemb	6LBicFemLong	7LRecFem	8LVastMed	9LVastLat	10LGasMed	11LTibAnt	12lTibPost	13LPeroneusLong	14LSol	15LExtDigLong	16LFlexDigLong	17RAddLong	18RGlutMax	19RGlutMed	20RIliopsoas	21RSemiMemb	22RBicFemLong	23RRecFem	24RVastMed	25RVastLat	26RGasMed	27RTibAnt	28RTibPost	29RPeroneusLong	30RSol	31RExtDigLong	32RFlexDigLong
56.035	0.005188	-0.041656	-0.16693	0.006256	0.066681	-0.024719	-0.006256	-0.002441	0.006866	-0.036774	0.008087	-0.051422	0.035858	-0.091248	0.027618	0.044098	0.054474	0.25543	-0.24002	0.056915	0.2771	-0.21683	-0.076599	0.69168	0.035858	0.031433	0.019226	0.004272	-0.32364	-0.084076	0.012665	-0.010681
56.036	0.00946	-0.031586	-0.1294	-0.001068	0.056763	-0.04303	0.004883	-0.002289	0.010376	-0.021362	0.012817	-0.071411	-0.005341	0.014954	0.028381	0.032349	0.055237	0.23239	-0.39246	0.028687	0.049438	-0.19928	0.040588	0.13534	0.019226	0.10101	0.007019	-0.069275	-0.33646	-0.24445	0.010834	-0.007477
56.037	0.003967	0.009613	-0.077209	0.00824	0.007477	-0.039825	-0.005646	-0.001831	0.014648	-0.013885	0.020142	-0.097046	-0.072937	-0.035248	0.019836	-0.082092	0.003967	0.26291	-0.24567	0.010071	-0.000305	-0.11536	0.013428	-0.19608	0.016479	0.028381	0.054932	-0.1506	-0.81375	-0.057678	0.013123	0.002136
56.038	0.013733	-0.027771	-0.093842	0.004425	-0.01236	-0.027161	-0.011597	0.003662	0.016632	0.006714	0.020447	-0.086212	-0.1265	-0.092926	0.018005	-0.14023	-0.069275	0.19989	-0.072327	-0.012512	0.065613	0.071869	-0.039825	-0.29984	0.044708	-0.067596	0.010986	0.056	-0.28793	0.10544	0.015717	-0.003815
56.039	-0.002899	-0.033264	-0.11047	-0.015259	-0.009918	-0.029449	-0.006409	0.006409	0.013275	-0.028992	0.014954	-0.080414	-0.10361	-0.014343	0.002747	-0.12116	-0.07431	0.18036	0.026245	-0.085907	-0.19745	0.049133	-0.054474	-0.43793	0.075073	-0.068512	0.028687	0.11276	0.12711	-0.045319	0.020142	-0.006256
56.04	-0.007019	-0.025635	-0.10956	-0.003052	-0.023499	-0.019836	-0.02655	0.003357	0.01236	-0.027618	0.013428	-0.05127	0.071564	0.000458	0.024872	0.071411	-0.044556	0.21255	0.31158	-0.097198	0	-0.083618	0.062103	-0.45075	0.027924	0.072784	0.075378	0.10132	-0.73776	-0.36041	0.015869	-0.018311
56.041	-0.005035	-0.040131	-0.1091	-0.00061	-0.014343	-0.026398	-0.01236	0.000305	0.016174	-0.078278	0.011444	-0.042114	0.10284	0.000763	0.035095	0.057678	0.002594	0.15472	0.012665	-0.052795	-0.013123	-0.12314	0.11978	-0.18402	-0.014343	0.059967	0.059662	0.007477	0.12512	-0.49805	0.013123	-0.01236
56.042	-0.01358	-0.007782	-0.112	0.035858	-0.023804	0.000305	-0.032959	0.009003	0.022278	-0.075989	0.013428	-0.025482	-0.013733	0.33371	0.031738	-0.008545	0.012207	0.19333	-0.086517	0.079651	-0.012817	-0.20538	0.065155	-0.066528	0.006714	0.037079	-0.088806	-0.28244	2.1246	-0.018463	0.016937	-0.013428
56.043	0.005188	-0.034027	-0.088959	0.028992	-0.007477	0.12985	-0.028076	0.006561	0.02243	-0.019989	0.020294	-0.019989	-0.075989	0.24887	0.025482	-0.036926	0.012817	0.15198	-0.10727	0.12299	0.11154	-0.20386	0.050659	0.048523	0.025177	0.036469	-0.10254	-0.048065	0.71518	0.22751	0.010071	-0.006104
56.044	0.016479	-0.036926	-0.071869	0.025024	0.023651	0.16022	-0.025177	-0.003052	0.02533	0.013733	0.010681	-0.004883	-0.044556	-0.28748	0.027161	0.093689	-0.019379	0.12711	-0.05127	0.057983	0.027161	-0.1294	0.004578	0.021362	0.026093	0.029449	0.10605	0.19714	-1.4285	0.036316	0.013275	-0.005951
56.045	0.01709	-0.055847	-0.062256	0.008392	0.002441	0.12009	-0.006561	-0.00061	0.028076	-0.035706	0.010223	-0.003967	-0.041199	-0.32379	0.007019	0.07309	-0.015106	0.041656	-0.071259	0.032654	-0.027771	-0.2417	-0.010071	0.084381	0.028534	0.00824	0.10101	0.13184	0.73196	-0.15915	0.010834	-0.008545
56.046	0.013733	-0.016022	-0.056763	-0.002289	-0.0177	0.10605	-0.024719	0	0.021057	-0.057678	-0.005035	-0.007629	0.044098	-0.11963	0.003052	0.001984	-0.007477	0.04776	-0.103	0.00885	0.21362	-0.33112	-0.014343	0.14603	0.039215	0.008087	0.022278	0.046234	2.5519	0.29602	0.011749	-0.019073
56.047	0.010223	-0.017242	-0.068207	0.01297	-0.030212	0.08606	-0.036163	-0.003052	0.020752	-0.06134	0.032196	0.029907	-0.041656	-0.13016	-0.016327	-0.019379	-0.013123	-0.037842	-0.055084	-0.000458	0.088501	-0.10651	-0.01358	0.075531	0.048523	-0.002289	0.079193	0.003967	1.3875	0.32638	0.012512	-0.009613
56.048	0.009155	0.006714	-0.099335	0.026245	-0.032349	0.090179	-0.040741	-0.006409	0.035706	-0.052795	0.026398	0.054626	-0.063477	-0.32044	-0.021057	0.002136	0.002747	-0.062103	0.012665	0.019684	-0.094757	0.011597	0.019989	0.020752	0.033264	-0.022278	-0.054016	-0.026245	-1.1296	0.17532	0.008698	-0.000153
56.049	0.006866	0.005493	-0.10635	0.019989	-0.050049	0.053558	-0.043488	-0.006714	0.039063	0.02121	0.016632	0.12955	0.000153	-0.17639	-0.029602	0.090485	-0.012512	-0.13382	-0.11643	-0.014648	-0.17197	0.11917	-0.014191	0.031281	0.043793	-0.072327	-0.008545	-0.010223	-2.0564	0.38361	0.009003	-0.014038
56.05	0.004883	-0.033722	-0.088196	0.004578	-0.069275	-0.002899	-0.026093	0.003357	0.012512	0.036469	0.00824	0.012512	0.025787	0.19394	-0.037384	-0.085297	0.010986	-0.12344	-0.12314	-0.020752	-0.25452	0.35706	-0.005493	-0.013428	0.02533	-0.086517	0.091858	0.005646	-2.1523	0.16556	0.008087	-0.002747
56.051	-0.00412	-0.015411	-0.078583	-0.002136	-0.10407	-0.009003	0.005951	-0.002441	0.005188	0.074463	0.00473	0.024261	0.049591	0.0737	-0.013123	-0.18845	0.034027	-0.03891	-0.14725	-0.075684	-0.16098	0.51849	0.05188	-0.059814	0.031281	-0.1004	0.011444	-0.000153	-0.99792	-0.030365	0.012207	-0.002136
56.052	-0.003357	0.002289	-0.064392	-0.012512	-0.073547	-0.010071	-0.0177	-0.001221	0.0177	0.090485	0.016785	0.041351	0.02533	0.08255	-0.033264	0.06546	0.022125	0.00351	-0.084686	-0.082245	-0.17944	0.26627	0.002747	0.056915	0.024414	-0.10925	0.0354	-0.016327	0.61279	-0.25818	0.015259	-0.003967
56.053	-0.001526	0.00061	-0.080566	0.009155	-0.020447	-0.043793	-0.019684	-0.001984	0.019226	0.095673	0.006561	0.043793	0.060425	-0.014038	-0.005493	0.084534	0.013275	0.062561	0.036316	0.007324	-0.059662	0.20081	0.031891	0.024872	0.019684	-0.034027	0.009155	-0.016785	-0.4277	-0.20645	0.007935	-0.000763
56.054	0.016632	-0.011139	-0.09964	0.027008	0.07019	-0.063477	-0.018768	0.003967	0.022583	0.084686	0.015564	0.028381	0.061646	-0.000305	0.00946	0.14694	0.010681	0.1416	0.23361	0.080719	0.07019	0.20248	0.063782	0.017395	-0.001068	0.12238	-0.083618	-0.025177	-0.73456	-0.34515	0.009003	0.006561
56.055	0.009155	-0.034332	-0.13001	0.034485	0.082397	-0.045471	-0.017548	-0.004578	0.024414	0.033569	0.015411	0.030518	0.058594	-0.015106	0.013885	-0.016479	-0.006409	0.10346	0.45212	0.1178	0.15976	0.29617	0.06424	0.018158	-0.011902	0.08667	-0.094452	-0.053864	-0.23407	-0.19745	0.00885	0.006561
56.056	0.014496	-0.075226	-0.17914	0.012054	0.10651	-0.074921	-0.019379	0.006104	0.016174	0.027008	0.011749	0.027161	0.074158	-0.17868	0.007935	-0.072784	-0.04425	0.048981	0.345	0.10986	0.47791	0.30731	-0.003052	0.1207	0.026093	0.026093	-0.14572	-0.073242	0.9314	0.047913	0.008545	-0.001068
56.057	0.001068	-0.038605	-0.1503	0.011444	0.071259	-0.062866	0.00946	0.006409	0.021515	0.003204	0.01709	0.023499	0.047913	-0.049591	0.005188	-0.04776	-0.012665	-0.11307	-0.061646	0.075378	0.1944	0.12238	0.039673	0.096741	0.00885	-0.015106	-0.080109	0.086823	0.38269	-0.10742	0.004883	-0.00885
56.058	0.006866	-0.010681	-0.030518	-0.010834	0.033112	-0.018921	-0.016479	0.003662	0.022736	0.048981	0.019836	0.018463	0.011902	0.043793	-0.006561	-0.049896	0.003815	-0.20309	-0.22964	0.029449	-0.103	0.057068	0.087128	-0.043488	-0.045166	-0.001068	-0.053101	0.036774	-0.018005	-0.095978	0.007172	-0.011292
56.059	0.004578	-0.005646	0.10971	0.001678	0.065613	-0.007629	-0.030212	0.002136	0.027618	0.027313	0.020447	0.02655	-0.018463	-0.078888	0.008087	-0.045929	0.017395	-0.16693	-0.168	0.013275	-0.1889	-0.018921	0.082245	-0.12131	-0.086365	0.037994	-0.061798	-0.030823	0.25559	0.17441	0.007172	-0.001373
56.06	0.008087	-0.031281	0.056458	0.008698	0.050507	-0.003815	-0.015717	-0.00473	0.029602	0.019989	0.021057	0.023041	0.077362	0.037537	0.005951	-0.002136	0.022736	-0.17258	-0.20905	0	-0.10269	-0.097656	0.073547	-0.072784	-0.11032	0.034943	-0.073242	-0.032349	0.34378	0.14801	0.00946	-0.016022
56.061	0.005188	-0.045929	-0.003204	-0.012054	0.039063	0.020142	-0.021667	0.006256	0.016937	0.011749	0.012817	0.019073	0.1535	0.097961	0.006409	0.002747	-0.040894	-0.24139	-0.1326	-0.036469	0.2211	0.019073	0.093384	-0.00473	-0.079193	0.028229	-0.054169	-0.020294	0.22568	0.026245	0.005798	-0.00946
56.062	0.010223	-0.070496	-0.016327	-0.008392	0.011444	0.013123	-0.015106	-0.001526	0.007629	0.005035	0.003204	0.018463	0.06897	0.0737	0.003662	-0.003357	-0.028229	-0.32471	-0.20325	0.005188	0.22034	-0.033417	0.024109	-0.013885	-0.074158	0.028992	-0.023346	-0.019836	0.094299	0.038147	0.000916	-0.012665
56.063	0.001678	-0.076294	-0.083313	0.00351	-0.019379	0.028229	-0.003204	0.001984	0.01709	0.029755	0.020599	0.018616	-0.045929	0.031281	-0.017548	-0.010681	-0.014191	-0.3241	-0.14053	0.012817	0.12878	-0.21774	-0.031128	0.096893	0.007935	0.014191	0.000916	-0.017853	0.020447	0.024261	0.006409	-0.019836
56.064	-0.001068	-0.076447	-0.087433	0.018005	0.015411	0.00412	-0.023499	0.004883	0.007629	0.009003	0.016022	0.015259	-0.10498	0.046539	0.015717	-0.011902	0.004883	-0.25848	-0.066376	0.00824	0.072937	-0.24445	-0.005798	0.07782	0.046539	0.009613	0.02533	-0.014343	-0.14618	-0.051422	0.007172	-0.013428
